<?xml version="1.0" encoding="UTF-8"?>
<svg id="Layer_1" xmlns="http://www.w3.org/2000/svg" version="1.1" viewBox="0 0 1080 1080">
  <!-- Generator: Adobe Illustrator 30.1.0, SVG Export Plug-In . SVG Version: 2.1.1 Build 136)  -->
  <defs>
    <style>
      .st0 {
        fill: #14293e;
      }
    </style>
  </defs>
  <g>
    <path class="st0" d="M269.36,539.42h-64.9v-85.24h63.2v17.41h-44.57v16.44h42.01v16.68h-42.01v17.17h46.27v17.54Z"/>
    <path class="st0" d="M305.04,454.18v67.83h42.62v17.41h-61.62v-85.24h19Z"/>
    <path class="st0" d="M420.12,509.59l-1.22-26.79v-28.62h19.12v85.24h-16.32l-42.38-54.55.73,28.01v26.55h-19.24v-85.24h16.32l42.99,55.41Z"/>
    <path class="st0" d="M519.12,524.81h-43.72l-6.21,14.61h-20.46l38.24-85.24h20.7l38.24,85.24h-20.58l-6.21-14.61ZM497.32,473.42l-14.74,34.58h29.35l-14.61-34.58Z"/>
    <path class="st0" d="M606.06,474.76c-2.27-2.35-5.22-4.14-8.83-5.36-3.61-1.22-7.25-1.83-10.9-1.83-4.3,0-7.91.85-10.84,2.56-2.92,1.7-4.38,3.98-4.38,6.82,0,3.57,1.48,6.03,4.44,7.37,2.96,1.34,7.61,2.29,13.94,2.86,21.84,1.87,32.76,11.08,32.76,27.64,0,6.01-1.74,11.14-5.24,15.4-3.49,4.26-7.87,7.31-13.15,9.13-5.28,1.83-11.12,2.78-17.54,2.86-7.79.08-15.1-1.38-21.92-4.38-6.82-3-11.93-7.39-15.34-13.15l11.32-11.81c3.09,3.98,7.02,6.98,11.81,9.01,4.79,2.03,9.54,3.04,14.25,3.04,5.03,0,9.13-.93,12.3-2.8s4.75-4.3,4.75-7.31c.08-3.49-1.28-6.15-4.08-7.98-2.8-1.83-7.16-2.98-13.09-3.47-5.11-.49-9.48-1.18-13.09-2.07-3.61-.89-7.12-2.27-10.53-4.14-3.41-1.87-5.99-4.49-7.73-7.85-1.75-3.37-2.58-7.45-2.5-12.24.08-8.12,3.39-14.47,9.92-19.06,6.53-4.59,14.47-6.88,23.81-6.88,6.98,0,12.97.97,17.96,2.92,4.99,1.95,9.6,5.36,13.82,10.23l-11.93,10.47Z"/>
    <path class="st0" d="M687.4,474.76c-2.27-2.35-5.22-4.14-8.83-5.36-3.61-1.22-7.25-1.83-10.9-1.83-4.3,0-7.91.85-10.84,2.56-2.92,1.7-4.38,3.98-4.38,6.82,0,3.57,1.48,6.03,4.44,7.37,2.96,1.34,7.61,2.29,13.94,2.86,21.84,1.87,32.76,11.08,32.76,27.64,0,6.01-1.74,11.14-5.24,15.4-3.49,4.26-7.87,7.31-13.15,9.13-5.28,1.83-11.12,2.78-17.54,2.86-7.79.08-15.1-1.38-21.92-4.38-6.82-3-11.93-7.39-15.34-13.15l11.32-11.81c3.09,3.98,7.02,6.98,11.81,9.01,4.79,2.03,9.54,3.04,14.25,3.04,5.03,0,9.13-.93,12.3-2.8s4.75-4.3,4.75-7.31c.08-3.49-1.28-6.15-4.08-7.98-2.8-1.83-7.16-2.98-13.09-3.47-5.11-.49-9.48-1.18-13.09-2.07-3.61-.89-7.12-2.27-10.53-4.14-3.41-1.87-5.99-4.49-7.73-7.85-1.75-3.37-2.58-7.45-2.5-12.24.08-8.12,3.39-14.47,9.92-19.06,6.53-4.59,14.47-6.88,23.81-6.88,6.98,0,12.97.97,17.96,2.92,4.99,1.95,9.6,5.36,13.82,10.23l-11.93,10.47Z"/>
    <path class="st0" d="M783.24,539.42h-64.9v-85.24h63.2v17.41h-44.57v16.44h42.01v16.68h-42.01v17.17h46.27v17.54Z"/>
    <path class="st0" d="M875.54,539.42h-21.07l-21.8-28.01h-13.76v28.01h-19v-85.24h40.43c9.82,0,17.54,2.8,23.14,8.4,5.6,5.6,8.4,12.38,8.4,20.34-.08,6.33-1.5,11.71-4.26,16.14s-7.92,7.98-15.47,10.66l23.38,28.25v1.46ZM818.92,470.5v24.84h21.68c4.06,0,7.16-1.22,9.32-3.65s3.23-5.2,3.23-8.28c-.08-3.33-1.22-6.31-3.41-8.95-2.19-2.64-5.32-3.96-9.38-3.96h-21.43Z"/>
  </g>
  <g>
    <path class="st0" d="M316.44,580.94h-17.95v-7.88h44.64v7.88h-17.87v46.75h-8.82v-46.75Z"/>
    <path class="st0" d="M392.78,627.69h-40.35v-54.64h40.12v8.51h-31.37v14.75h30.13v8.12h-30.13v14.67h31.61v8.59Z"/>
    <path class="st0" d="M438.13,573.05h9.6v.39l-18.5,26.54,19.28,27.47v.23h-9.91l-14.83-21.62-14.91,21.62h-9.91v-.23l19.2-27.47-18.42-26.54v-.39h9.6l14.44,21.15,14.36-21.15Z"/>
    <path class="st0" d="M469.59,580.94h-17.95v-7.88h44.64v7.88h-17.87v46.75h-8.82v-46.75Z"/>
    <path class="st0" d="M505.57,627.69v-54.64h8.66v54.64h-8.66Z"/>
    <path class="st0" d="M537.81,573.05v46.52h28.8v8.12h-37.54v-54.64h8.74Z"/>
    <path class="st0" d="M616.33,627.69h-40.35v-54.64h40.12v8.51h-31.38v14.75h30.13v8.12h-30.13v14.67h31.61v8.59Z"/>
    <path class="st0" d="M694.07,620.67c-5.62,5.54-12.88,8.12-20.53,8.12-19.82,0-28.72-13.66-28.8-28.02-.08-14.36,9.29-28.65,28.8-28.65,7.34,0,14.44,2.73,19.98,8.27l-5.85,5.62c-3.9-3.82-9.05-5.62-14.13-5.62-13.89,0-20.22,10.23-20.14,20.29.08,9.99,6.01,19.9,20.14,19.9,5.07,0,10.69-2.11,14.52-5.93l6.01,6.01Z"/>
    <path class="st0" d="M755.19,600.61c0,14.75-8.98,28.25-27.94,28.25s-27.94-13.81-27.94-28.18c0-16.62,11.63-28.65,28.1-28.65,18.65.08,27.79,13.81,27.79,28.57ZM727.25,620.82c13.58,0,19.28-9.6,19.28-20.06s-5.78-20.53-19.12-20.76c-12.64,0-19.44,8.82-19.44,20.76.16,9.68,5.78,20.06,19.28,20.06Z"/>
    <path class="st0" d="M772.52,623.4c0,6.63-9.91,6.63-9.91,0s9.91-6.56,9.91,0Z"/>
  </g>
</svg>