<?xml version="1.0" encoding="utf-8"?>
<!-- Generator: Adobe Illustrator 27.7.0, SVG Export Plug-In . SVG Version: 6.00 Build 0)  -->
<svg version="1.1" id="Layer_1" xmlns="http://www.w3.org/2000/svg" xmlns:xlink="http://www.w3.org/1999/xlink" x="0px" y="0px"
	 viewBox="0 0 576 360" style="enable-background:new 0 0 576 360;" xml:space="preserve">
<style type="text/css">
	.st0{fill-rule:evenodd;clip-rule:evenodd;}
	.st1{fill:none;}
</style>
<g>
	<g>
		<path class="st0" d="M257.6,213.7c82.1-4.9,133.8-14.7,164.1-28.8c30.2-14,43-27.4,19.3-46.4c-6.8-5.4-16-9.7-24.3-13
			C341.8,96.1,208.5,97.1,123,110.4c71.6-3.1,159.9-4.3,222.8,9.1c23.8,5.1,75.7,16,78.2,38.5c2.3,21.2-43.1,29.9-66.7,34.9
			c-15.5,3.3-44.3,7.5-50.5,8c-32.5,2.7-37.9,2.5-41.2,3.4L257.6,213.7z"/>
		<path d="M496.6,245.7c0,2.4-1.9,4.3-4.4,4.3s-4.4-1.9-4.4-4.3s1.9-4.2,4.4-4.2S496.6,243.4,496.6,245.7 M489,245.7
			c0,1.9,1.4,3.4,3.3,3.4c1.8,0,3.2-1.5,3.2-3.4s-1.4-3.4-3.3-3.4C490.4,242.3,489,243.9,489,245.7 M491.6,247.9h-1v-4.2
			c0.4-0.1,0.9-0.1,1.6-0.1c0.8,0,1.2,0.1,1.5,0.3s0.4,0.5,0.4,0.9c0,0.5-0.4,0.9-0.9,1v0.1c0.4,0.1,0.6,0.5,0.8,1
			c0.1,0.6,0.2,0.9,0.3,1h-1c-0.1-0.2-0.2-0.5-0.3-1c-0.1-0.4-0.3-0.6-0.9-0.6h-0.5V247.9L491.6,247.9z M491.6,245.6h0.5
			c0.5,0,1-0.2,1-0.6c0-0.4-0.3-0.6-0.9-0.6c-0.3,0-0.4,0-0.5,0.1v1.1H491.6z"/>
		<path class="st0" d="M131.4,240.8h-31.3l0,0l0,0l0,0l-20.9,23.5h9.5l16.6-18.7l0,0l17.8,0.1c-1.1,3.5-4,4.4-6,4.6H108
			c-2.4,0-5,4-5.4,4.6H118c11-1.1,14.6-12.6,14.6-13.4C132.6,240.7,131.4,240.8,131.4,240.8"/>
		<path class="st0" d="M277.1,240.8h-31.3l0,0l0,0l0,0l-20.9,23.5h9.5l16.6-18.7l0,0l17.8,0.1c-1.1,3.5-4,4.4-6,4.6h-9.1
			c-2.4,0-5,4-5.4,4.6h15.4c11-1.1,14.6-12.6,14.6-13.4C278.4,240.7,277.1,240.8,277.1,240.8"/>
		<path class="st0" d="M174.2,240.8h-2.9H143l0,0l0,0l0,0l-20.9,23.5h9.5l16.6-18.7l0,0l18.2,0.1c-1.4,3.6-4.4,4.4-6.4,4.6h-9.7
			c-4.6,0.1-3.2,4.6-3.2,4.6l3.2,9.2h9.7l-4.2-9.2h5.3c10.8-0.5,14.6-12.6,14.6-13.4C175.5,240.8,174.2,240.8,174.2,240.8"/>
		<path class="st0" d="M483.6,240.8h-2.9h-18.9h-9.5l0,0l0,0l0,0l-20.9,23.5h9.5l16.6-18.7l0,0l18.2,0.1c-1.4,3.6-4.4,4.4-6.4,4.6
			h-9.7c-4.6,0.1-3.2,4.6-3.2,4.6l3.2,9.2h9.7l-4.2-9.2h5.3c10.8-0.5,14.6-12.6,14.6-13.4C484.9,240.8,483.6,240.8,483.6,240.8"/>
		<path class="st0" d="M220.6,240.8c-0.1,0-31.9,0.1-31.9,0.1c-2.6,0.1-3.8,0.9-4.3,1.4L168.6,260c-1.2,1.3-2.7,4,1.3,4.1
			c0.1,0,0,0,0,0c-0.1,0,0.1,0,0.1,0h30.7c0,0,3.9,0,5.5-1.6l15.7-17.6C223.8,242.9,223.2,240.7,220.6,240.8 M200,258.9h-21
			l11.8-13.2h21L200,258.9z"/>
		<polygon class="st0" points="281.1,259.2 297.3,240.8 288,240.8 288,240.8 288,240.9 288,240.9 267.1,264.3 299.9,264.3 
			303.1,259.2 		"/>
		<polygon class="st0" points="160.1,252.5 160.3,252.5 160.4,252.4 160.2,252.4 		"/>
		<path class="st0" d="M337.7,240.8L337.7,240.8L337.7,240.8L337.7,240.8l-34.4,23.5h9.5l7.9-5.4H339v5.2h9.1v-23.3H337.7
			L337.7,240.8z M328.1,253.8l10.8-7.5v7.5H328.1z"/>
		<polygon class="st0" points="440.3,245.9 444.6,240.9 410.4,240.8 410.3,240.8 410.3,240.9 410.3,240.9 389.4,264.3 424.3,264.3 
			428,259.2 403.5,259.2 407.7,254.4 422.5,254.4 426.8,249.4 412.1,249.4 415.1,245.9 		"/>
		<path class="st0" d="M403.1,240.8h-11.5c0,0-15.5,6.7-16.2,7.1c-1.4,0.8-1.8,0-1.8,0l-3.4-7h-10.6l5.5,11.7l-9.5,11.7h9.8l7.2-8.8
			L403.1,240.8z"/>
		<path class="st0" d="M386.1,155c-2.6-17.1-27.5-19.6-27.5-19.6l-89-1.5l-75,79.1h50c0,0,63.2-70.5,63-70.5h27.1v23
			c0.2,11.3-12.4,10.6-12.4,10.6h-33.4l-7.4,8.9c0,0,32.8,0.2,41-0.4c14.6-0.8,38.6-3.4,52.6-12C389,164.4,386.1,155,386.1,155"/>
	</g>
</g>
<rect class="st1" width="577" height="359"/>
</svg>
